<svg width="396" height="263" viewBox="0 0 396 263" fill="none" xmlns="http://www.w3.org/2000/svg">
<path d="M334.119 244.743C335.947 245.401 337.91 245.566 339.819 245.221C341.727 244.877 343.517 244.035 345.016 242.777C348.832 239.497 350.03 234.094 351.003 229.09L353.882 214.29L347.853 218.541C343.517 221.598 339.084 224.753 336.082 229.181C333.079 233.609 331.769 239.653 334.181 244.444" fill="#858585"/>
<path d="M334.634 262.661C334.024 258.109 333.396 253.5 333.824 248.9C334.205 244.814 335.422 240.824 337.9 237.552C339.216 235.819 340.816 234.334 342.63 233.163C343.103 232.858 343.538 233.626 343.068 233.93C339.929 235.961 337.502 238.96 336.135 242.494C334.626 246.425 334.383 250.71 334.646 254.885C334.803 257.41 335.136 259.918 335.472 262.424C335.499 262.538 335.483 262.657 335.427 262.759C335.371 262.86 335.278 262.936 335.169 262.97C335.059 263.001 334.94 262.986 334.841 262.928C334.741 262.87 334.667 262.773 334.636 262.66L334.634 262.661Z" fill="#F2F2F2"/>
<path d="M383.337 262.479C383.337 262.479 377.005 246.52 396 234.552L383.337 262.479Z" fill="#858585"/>
<path d="M375.55 262.188C375.55 262.188 373.618 250.814 358.669 250.912L375.55 262.188Z" fill="#858585"/>
<path d="M25.6655 122.533H164.862V21.9961H25.6655V122.533Z" fill="white"/>
<path d="M167.841 125.583H22.6865V18.9458H167.841V125.583ZM25.6655 122.533H164.862V21.996H25.6655V122.533Z" fill="#E6E6E6"/>
<path d="M13.3446 113.293H12.3184V11.1176H151.519V12.1765H13.3446V113.293Z" fill="#263238"/>
<path d="M1.02676 102.176H0V0H139.201V1.05894H1.02676V102.176Z" fill="#263238"/>
<path d="M95.2638 102.97C111.705 102.97 125.033 89.2226 125.033 72.2643C125.033 55.306 111.705 41.5586 95.2638 41.5586C78.8225 41.5586 65.4941 55.306 65.4941 72.2643C65.4941 89.2226 78.8225 102.97 95.2638 102.97Z" fill="white"/>
<path d="M95.2643 103.478C78.5754 103.478 64.998 89.4757 64.998 72.2643C64.998 55.0529 78.5754 41.0503 95.2643 41.0503C111.953 41.0503 125.53 55.0529 125.53 72.2643C125.53 89.4757 111.953 103.478 95.2643 103.478ZM95.2643 42.067C79.123 42.067 65.991 55.6134 65.991 72.2643C65.991 88.9152 79.123 102.462 95.2643 102.462C111.406 102.462 124.537 88.9152 124.537 72.2643C124.537 55.6134 111.406 42.067 95.2643 42.067V42.067Z" fill="#263238"/>
<path d="M87.0366 57.0303V88.0278L111.737 72.317L87.0366 57.0303Z" fill="#263238"/>
<path d="M255.825 256.532H250.27L247.628 234.594H255.826L255.825 256.532Z" fill="#A8A8A8"/>
<path d="M257.242 262.045L239.331 262.044V261.812C239.331 259.919 240.066 258.104 241.373 256.765C242.68 255.427 244.453 254.675 246.302 254.675H246.303L257.242 254.675L257.242 262.045Z" fill="#858585"/>
<path d="M303.548 248.218L298.891 251.318L284.997 234.401L291.87 229.825L303.548 248.218Z" fill="#A8A8A8"/>
<path d="M307.67 252.05L292.654 262.045L292.53 261.851C291.523 260.264 291.172 258.331 291.555 256.48C291.939 254.628 293.025 253.008 294.575 251.976L294.575 251.975L303.747 245.87L307.67 252.05Z" fill="#858585"/>
<path d="M270.018 49.4659C272.845 49.4659 275.136 47.1197 275.136 44.2255C275.136 41.3312 272.845 38.985 270.018 38.985C267.191 38.985 264.9 41.3312 264.9 44.2255C264.9 47.1197 267.191 49.4659 270.018 49.4659Z" fill="#858585"/>
<path d="M265.187 46.1314C264.653 45.4076 264.312 44.5543 264.197 43.6551C264.082 42.7559 264.196 41.8414 264.53 41.0012C264.863 40.1609 265.403 39.4236 266.098 38.8613C266.793 38.299 267.619 37.9309 268.494 37.7931C267.784 37.7731 267.077 37.9049 266.419 38.18C265.761 38.4551 265.166 38.8675 264.673 39.391C264.179 39.9145 263.797 40.5375 263.552 41.2204C263.306 41.9033 263.202 42.6311 263.247 43.3574C263.291 44.0837 263.483 44.7926 263.81 45.4388C264.136 46.0851 264.591 46.6546 265.144 47.111C265.698 47.5674 266.338 47.9008 267.025 48.0898C267.711 48.2788 268.428 48.3194 269.131 48.2089C268.363 48.1886 267.61 47.9912 266.927 47.6315C266.244 47.2719 265.649 46.7591 265.187 46.1314V46.1314Z" fill="#858585"/>
<path d="M264.716 78.1625C273.019 78.1625 279.75 71.2705 279.75 62.7686C279.75 54.2668 273.019 47.3748 264.716 47.3748C256.413 47.3748 249.682 54.2668 249.682 62.7686C249.682 71.2705 256.413 78.1625 264.716 78.1625Z" fill="#858585"/>
<path d="M250.707 57.161C252.334 53.5335 255.274 50.6951 258.906 49.2449C262.539 47.7948 266.579 47.8462 270.175 49.3885C270.023 49.3108 269.872 49.2318 269.717 49.1588C266.093 47.4553 261.957 47.2955 258.218 48.7145C254.48 50.1336 251.445 53.0152 249.781 56.7256C248.117 60.4359 247.961 64.671 249.347 68.4992C250.733 72.3273 253.547 75.435 257.171 77.1385C257.326 77.2115 257.483 77.2771 257.639 77.3442C254.153 75.5573 251.482 72.4534 250.188 68.6876C248.895 64.9219 249.081 60.7889 250.707 57.161V57.161Z" fill="#858585"/>
<path d="M282.958 143.548L293.732 200.779L307.874 243.528L284.978 248.355L262.755 162.855L262.082 244.908L233.125 245.597L239.859 196.641L248.035 141.371L282.958 143.548Z" fill="#858585"/>
<path d="M264.763 78.0562C270.342 78.0562 274.865 73.4256 274.865 67.7134C274.865 62.0012 270.342 57.3706 264.763 57.3706C259.185 57.3706 254.662 62.0012 254.662 67.7134C254.662 73.4256 259.185 78.0562 264.763 78.0562Z" fill="#A8A8A8"/>
<path d="M274.203 83.1622L258.715 83.5596L247.94 89.0758L249.287 120.794L246.676 145.083C246.676 145.083 245.7 148.889 252.434 152.337C254.589 153.44 257.365 153.908 260.143 154.034C265.833 154.223 271.415 152.415 275.964 148.911C277.377 147.852 278.941 147.143 280.264 147.685C283.631 149.064 284.305 144.927 284.305 144.927L280.264 124.931L286.325 105.916L280.203 85.5045L274.203 83.1622Z" fill="#263238"/>
<path d="M255.438 56.899V68.4147H258.044L261.358 64.7783L260.914 68.4147H272.427L271.717 64.7783L273.138 68.4147H274.973V56.899H255.438Z" fill="#858585"/>
<path d="M276.994 64.8453C276.965 64.5334 276.824 64.2439 276.597 64.033C276.371 63.822 276.076 63.7049 275.77 63.7042H274.534V72.0469H275.77C276.076 72.0463 276.371 71.9291 276.597 71.7182C276.824 71.5073 276.965 71.2177 276.994 70.9059C277.61 70.736 278.155 70.363 278.543 69.8446C278.931 69.3262 279.142 68.6913 279.142 68.038V67.7132C279.142 67.0599 278.931 66.425 278.543 65.9066C278.155 65.3882 277.61 65.0152 276.994 64.8453Z" fill="#263238"/>
<path d="M254.655 71.0113H253.288C252.907 71.0113 252.529 70.9344 252.177 70.7849C251.825 70.6355 251.504 70.4165 251.235 70.1404C250.965 69.8643 250.751 69.5366 250.605 69.1758C250.459 68.8151 250.384 68.4285 250.384 68.038V67.7132C250.384 67.3227 250.459 66.9361 250.605 66.5753C250.751 66.2146 250.965 65.8868 251.235 65.6107C251.504 65.3346 251.825 65.1156 252.177 64.9662C252.529 64.8168 252.907 64.7399 253.288 64.7399H254.655V71.0113V71.0113Z" fill="#263238"/>
<path d="M254.992 72.047H253.756C253.428 72.047 253.113 71.9136 252.882 71.6762C252.65 71.4388 252.52 71.1169 252.52 70.7811V70.7811V64.97C252.52 64.6343 252.65 64.3124 252.882 64.075C253.113 63.8376 253.428 63.7042 253.756 63.7042H254.992V72.047V72.047Z" fill="#263238"/>
<path d="M276.333 65.1764H275.427C275.427 58.6236 270.685 53.2927 264.856 53.2927C259.027 53.2927 254.286 58.6236 254.286 65.1764H253.379C253.379 58.1121 258.528 52.3649 264.856 52.3649C271.184 52.3649 276.333 58.1121 276.333 65.1764Z" fill="#263238"/>
<path d="M239.418 161.848C239.963 161.543 240.436 161.12 240.804 160.608C241.172 160.095 241.426 159.507 241.548 158.883C241.67 158.259 241.657 157.616 241.509 156.998C241.362 156.38 241.084 155.803 240.696 155.307L245.362 146.59L240.879 142.394L234.459 154.8C233.688 155.524 233.204 156.512 233.097 157.577C232.991 158.642 233.27 159.71 233.881 160.579C234.492 161.448 235.393 162.057 236.414 162.291C237.434 162.524 238.503 162.367 239.418 161.848V161.848Z" fill="#A8A8A8"/>
<path d="M251.307 89.0758L249.495 88.1664C249.495 88.1664 245.247 89.0758 243.9 91.8339C242.553 94.5919 239.186 122.862 239.186 122.862L236.492 141.479C236.492 141.479 234.472 141.479 234.472 143.548C234.472 145.616 231.778 151.133 233.799 151.133C235.819 151.133 243.9 151.133 245.247 149.754C246.594 148.375 249.287 142.858 248.614 142.169C247.94 141.479 246.594 141.479 246.594 141.479L248.488 122.815L251.307 89.0758Z" fill="#263238"/>
<path d="M287.499 155.368C287.047 154.932 286.694 154.399 286.464 153.808C286.235 153.217 286.135 152.582 286.171 151.947C286.207 151.312 286.379 150.693 286.674 150.134C286.969 149.574 287.381 149.088 287.879 148.709L285.52 139.066L290.893 136.169L294.038 149.834C294.605 150.734 294.829 151.815 294.669 152.873C294.509 153.931 293.975 154.893 293.169 155.575C292.363 156.257 291.341 156.612 290.296 156.574C289.251 156.536 288.256 156.107 287.499 155.368V155.368Z" fill="#A8A8A8"/>
<path d="M280.741 116.714L282.636 135.379C282.636 135.379 281.289 135.379 280.615 136.068C279.942 136.758 282.636 142.274 283.983 143.653C285.329 145.032 293.41 145.032 295.431 145.032C297.451 145.032 294.757 139.516 294.757 137.448C294.757 135.379 292.737 135.379 292.737 135.379L290.043 116.762C290.043 116.762 286.676 91.5418 285.329 88.7837C283.983 86.0256 279.735 85.1162 279.735 85.1162L277.922 86.0256L280.741 116.714Z" fill="#263238"/>
<path d="M243.809 155.572L243.722 155.628L242.211 153.19C242.096 153.005 241.947 152.844 241.771 152.718C241.596 152.592 241.398 152.502 241.189 152.454C240.98 152.406 240.764 152.401 240.552 152.439C240.341 152.477 240.139 152.557 239.958 152.674L234.914 155.951C234.548 156.189 234.29 156.565 234.195 156.998C234.101 157.43 234.178 157.884 234.41 158.258V158.258L242.698 171.634C242.813 171.819 242.962 171.979 243.137 172.106C243.313 172.232 243.511 172.322 243.72 172.369C243.929 172.417 244.145 172.423 244.356 172.385C244.568 172.347 244.769 172.267 244.95 172.15L249.995 168.872C250.361 168.635 250.619 168.259 250.714 167.826C250.808 167.393 250.731 166.94 250.499 166.566L244.797 157.364L244.884 157.307L243.809 155.572Z" fill="#263238"/>
<path d="M241.924 153.39L250.2 166.747C250.373 167.026 250.43 167.365 250.36 167.688C250.289 168.011 250.096 168.292 249.823 168.469L244.754 171.762C244.481 171.939 244.151 171.998 243.835 171.926C243.52 171.854 243.245 171.656 243.072 171.377L234.796 158.021C234.623 157.741 234.565 157.403 234.636 157.08C234.706 156.757 234.899 156.475 235.172 156.298L235.787 155.899C235.804 155.994 235.844 156.084 235.903 156.161C235.961 156.237 236.038 156.297 236.125 156.336C236.212 156.375 236.306 156.392 236.401 156.385C236.496 156.377 236.587 156.346 236.667 156.294L239.558 154.417C239.638 154.365 239.704 154.293 239.751 154.208C239.798 154.124 239.824 154.029 239.826 153.932C239.829 153.835 239.808 153.738 239.765 153.651C239.723 153.564 239.66 153.489 239.583 153.433L240.241 153.005C240.514 152.828 240.845 152.769 241.161 152.841C241.476 152.913 241.751 153.111 241.924 153.39V153.39Z" fill="#263238"/>
<path d="M391.874 263H202.709C202.577 263 202.451 262.946 202.358 262.851C202.265 262.756 202.212 262.626 202.212 262.492C202.212 262.357 202.265 262.227 202.358 262.132C202.451 262.037 202.577 261.983 202.709 261.983H391.874C392.006 261.983 392.132 262.037 392.225 262.132C392.319 262.227 392.371 262.357 392.371 262.492C392.371 262.626 392.319 262.756 392.225 262.851C392.132 262.946 392.006 263 391.874 263Z" fill="#CBCBCB"/>
</svg>
