<svg width="236" height="190" viewBox="0 0 236 190" fill="none" xmlns="http://www.w3.org/2000/svg">
<g clip-path="url(#clip0_10460_952)">
<path d="M98.0064 161.741L100.595 160.908L98.6148 150.527L94.7944 151.756L98.0064 161.741Z" fill="#CCCCCC"/>
<path d="M100.302 159.37L100.299 159.371L97.5851 160.425L97.5825 160.426L96.9546 160.671L98.3539 166.706L98.4282 167.029L100.268 166.439L100.225 166.107L100.036 164.596L101.183 165.8L101.432 166.062L106.307 164.496C106.597 164.403 106.826 164.203 106.96 163.951C107.109 163.686 107.15 163.361 107.047 163.048C106.944 162.022 102.223 161.247 101.53 160.863L100.967 159.109L100.302 159.37V159.37Z" fill="#263238"/>
<path d="M93.2554 125.682C93.6755 126.029 93.9704 126.503 94.095 127.034L94.6508 129.407L100.513 154.719L94.0964 157.131C89.9634 148.882 87.4942 143.712 87.3546 137.911C87.3154 136.304 87.4567 134.646 87.7894 132.861C87.7894 132.861 83.6112 135.706 78.6458 138.961C78.2099 139.246 77.767 139.537 77.3181 139.826C73.1991 142.509 68.7589 145.322 65.7979 146.971C63.9965 147.974 62.2728 147.966 60.7264 147.353C56.3122 145.615 53.3042 138.984 53.8884 136.928L60.5569 127.003L68.8066 131.116L69.6689 131.545L84.0975 123.077C86.2028 121.841 88.8556 122.053 90.7386 123.606L93.2554 125.682V125.682Z" fill="#263238"/>
<path d="M228.135 76.6389C230.172 72.8903 231.495 69.2151 231.967 65.8251C230.078 65.6042 228.408 65.7581 226.949 66.2478C229.461 62.0623 231.137 56.9076 228.955 54.2615C227.581 52.8028 225.804 51.7108 223.704 50.9856C224.384 47.8427 224.392 44.8982 223.618 42.3095C220.027 30.257 196.26 51.9716 181.092 42.573C174.734 38.6343 167.889 43.5971 162.345 51.5777C163.106 54.2316 164.51 56.6981 166.482 58.6348C163.969 58.4556 161.498 57.7167 159.298 56.4889C153.365 67.1344 149.78 80.4608 151.575 86.4857C152.741 90.3946 155.53 93.0213 159.444 94.374C158.765 97.5169 173.437 120.078 176.141 120.054C183.328 119.992 185.563 103.666 190.361 124.588L179.672 189.865H195.154V122.545C199.462 115.893 203.912 120.342 214.168 115.165C245.624 99.2849 232.214 81.7825 228.135 76.6389Z" fill="#CCCCCC"/>
<path d="M96.655 47.7809C99.2114 43.0769 100.871 38.4649 101.464 34.2109C99.0943 33.9337 96.9979 34.1268 95.1672 34.7414C98.319 29.489 100.423 23.0206 97.6843 19.7001C95.9596 17.8696 93.7305 16.4993 91.0957 15.5892C91.9478 11.6453 91.9581 7.95032 90.9866 4.70185C86.4806 -10.4225 56.6562 16.8266 37.6231 5.03249C29.6438 0.0898851 21.0544 6.31757 14.0976 16.3323C15.052 19.6626 16.8142 22.7577 19.2888 25.1881C16.1359 24.9631 13.0342 24.0359 10.2733 22.4952C2.82909 35.8539 -1.67014 52.5769 0.582881 60.1374C2.04512 65.0425 5.54566 68.3387 10.4573 70.0362C9.6052 73.98 28.0168 102.291 31.4094 102.261C40.4283 102.183 43.2327 81.6962 49.2543 107.95L35.8404 189.865H55.2689V105.387C60.6748 97.0395 66.2588 102.623 79.1284 96.1258C118.602 76.1987 101.774 54.2354 96.655 47.7809V47.7809Z" fill="#CCCCCC"/>
<path d="M136.413 184.924C136.974 184.959 137.284 184.262 136.859 183.855L136.817 183.687C136.823 183.674 136.828 183.661 136.834 183.647C137.401 182.294 139.325 182.303 139.887 183.658C140.387 184.861 141.022 186.066 141.179 187.338C141.249 187.899 141.218 188.471 141.093 189.022C142.263 186.466 142.879 183.675 142.879 180.868C142.879 180.162 142.84 179.457 142.761 178.753C142.696 178.178 142.607 177.606 142.491 177.039C141.865 173.976 140.509 171.058 138.553 168.621C137.612 168.107 136.828 167.304 136.354 166.341C136.184 165.993 136.051 165.62 135.988 165.239C136.095 165.253 136.391 163.623 136.311 163.523C136.46 163.297 136.727 163.184 136.89 162.963C137.7 161.865 138.816 162.057 139.398 163.549C140.643 164.177 140.655 165.219 139.891 166.221C139.405 166.859 139.339 167.721 138.912 168.404C138.956 168.46 139.002 168.514 139.046 168.571C139.85 169.602 140.546 170.711 141.132 171.876C140.966 170.581 141.211 169.022 141.628 168.016C142.103 166.871 142.993 165.906 143.777 164.915C144.718 163.726 146.649 164.245 146.815 165.753C146.816 165.768 146.818 165.782 146.819 165.797C146.703 165.862 146.589 165.932 146.477 166.006C145.842 166.426 146.062 167.411 146.814 167.528L146.832 167.53C146.789 167.949 146.718 168.365 146.612 168.774C147.618 172.663 145.447 174.079 142.347 174.143C142.279 174.178 142.212 174.213 142.144 174.246C142.458 175.13 142.709 176.038 142.895 176.957C143.061 177.769 143.177 178.59 143.242 179.415C143.323 180.455 143.316 181.501 143.228 182.54L143.233 182.503C143.456 181.359 144.077 180.29 144.979 179.55C146.322 178.446 148.22 178.04 149.669 177.153C150.367 176.726 151.261 177.278 151.139 178.087L151.133 178.125C150.917 178.213 150.707 178.315 150.503 178.429C150.387 178.495 150.273 178.564 150.162 178.638C149.526 179.058 149.746 180.043 150.499 180.16L150.516 180.162C150.528 180.164 150.539 180.166 150.551 180.168C150.181 181.047 149.665 181.862 149.019 182.566C148.391 185.961 145.69 186.283 142.802 185.294H142.8C142.484 186.67 142.023 188.014 141.43 189.294H136.535C136.518 189.24 136.502 189.184 136.486 189.129C136.939 189.157 137.395 189.131 137.84 189.049C137.477 188.603 137.114 188.154 136.751 187.708C136.742 187.699 136.735 187.691 136.728 187.682C136.544 187.454 136.358 187.228 136.174 186.999L136.174 186.999C136.162 186.299 136.246 185.601 136.412 184.924L136.413 184.924V184.924Z" fill="#CCCCCC"/>
<path d="M164.767 183.344C165.531 183.392 165.953 182.443 165.375 181.89L165.318 181.661C165.325 181.643 165.333 181.625 165.341 181.606C166.113 179.764 168.732 179.777 169.498 181.622C170.177 183.259 171.043 184.9 171.256 186.631C171.352 187.395 171.309 188.174 171.139 188.924C172.732 185.444 173.571 181.644 173.571 177.822C173.571 176.862 173.518 175.902 173.41 174.944C173.322 174.161 173.2 173.382 173.043 172.611C172.19 168.44 170.344 164.468 167.681 161.151C166.401 160.451 165.333 159.357 164.688 158.046C164.456 157.573 164.275 157.064 164.189 156.546C164.335 156.565 164.738 154.346 164.628 154.21C164.831 153.901 165.195 153.748 165.417 153.448C166.519 151.952 168.039 152.213 168.832 154.245C170.526 155.101 170.543 156.519 169.503 157.883C168.842 158.751 168.751 159.925 168.17 160.854C168.23 160.931 168.292 161.005 168.352 161.081C169.447 162.486 170.394 163.995 171.192 165.581C170.967 163.819 171.3 161.695 171.868 160.327C172.514 158.767 173.726 157.454 174.793 156.105C176.074 154.486 178.703 155.193 178.928 157.245C178.931 157.265 178.933 157.285 178.935 157.305C178.776 157.394 178.621 157.489 178.469 157.59C177.604 158.162 177.903 159.503 178.928 159.661L178.952 159.665C178.894 160.236 178.796 160.802 178.653 161.358C180.022 166.652 177.067 168.581 172.847 168.667C172.754 168.715 172.663 168.763 172.57 168.808C172.997 170.012 173.339 171.247 173.592 172.498C173.819 173.604 173.977 174.722 174.065 175.845C174.175 177.261 174.165 178.685 174.046 180.099L174.053 180.048C174.356 178.491 175.202 177.037 176.429 176.029C178.258 174.526 180.842 173.973 182.815 172.765C183.765 172.184 184.982 172.935 184.816 174.036C184.813 174.054 184.811 174.072 184.808 174.089C184.514 174.209 184.227 174.347 183.95 174.502C183.792 174.592 183.637 174.687 183.485 174.787C182.62 175.359 182.919 176.7 183.944 176.859L183.967 176.862C183.984 176.865 183.998 176.867 184.015 176.869C183.511 178.066 182.809 179.177 181.93 180.134C181.074 184.756 177.398 185.194 173.465 183.849H173.463C173.033 185.721 172.405 187.551 171.598 189.294H164.934C164.91 189.22 164.889 189.144 164.867 189.07C165.483 189.108 166.104 189.072 166.711 188.96C166.217 188.353 165.722 187.742 165.228 187.135C165.216 187.123 165.206 187.111 165.197 187.099C164.946 186.789 164.693 186.481 164.442 186.17L164.442 186.17C164.426 185.217 164.541 184.267 164.767 183.345L164.767 183.344H164.767Z" fill="#CCCCCC"/>
<path d="M202.145 184.924C202.706 184.959 203.016 184.262 202.592 183.855L202.549 183.687C202.555 183.674 202.561 183.661 202.566 183.647C203.134 182.294 205.057 182.303 205.62 183.658C206.119 184.861 206.755 186.066 206.911 187.338C206.982 187.899 206.95 188.471 206.825 189.022C207.996 186.466 208.611 183.675 208.611 180.868C208.611 180.162 208.573 179.457 208.494 178.753C208.429 178.178 208.339 177.606 208.224 177.039C207.597 173.976 206.241 171.058 204.285 168.621C203.345 168.107 202.561 167.304 202.087 166.341C201.917 165.993 201.783 165.62 201.72 165.239C201.827 165.253 202.124 163.623 202.043 163.523C202.192 163.297 202.459 163.184 202.622 162.963C203.432 161.865 204.548 162.057 205.131 163.549C206.375 164.177 206.387 165.219 205.624 166.221C205.138 166.859 205.071 167.721 204.645 168.404C204.689 168.46 204.734 168.514 204.778 168.571C205.582 169.602 206.278 170.711 206.864 171.876C206.699 170.581 206.943 169.022 207.361 168.016C207.835 166.871 208.725 165.906 209.509 164.915C210.451 163.726 212.381 164.245 212.547 165.753C212.549 165.768 212.55 165.782 212.552 165.797C212.435 165.862 212.321 165.932 212.21 166.006C211.574 166.426 211.794 167.411 212.547 167.528L212.564 167.53C212.522 167.949 212.45 168.365 212.345 168.774C213.35 172.663 211.179 174.079 208.08 174.143C208.011 174.178 207.945 174.213 207.876 174.246C208.19 175.13 208.441 176.038 208.627 176.957C208.794 177.769 208.91 178.59 208.975 179.415C209.055 180.455 209.048 181.501 208.96 182.54L208.966 182.503C209.189 181.359 209.81 180.29 210.711 179.55C212.055 178.446 213.953 178.04 215.402 177.153C216.099 176.726 216.993 177.278 216.872 178.087L216.866 178.125C216.65 178.213 216.439 178.315 216.236 178.429C216.119 178.495 216.005 178.564 215.894 178.638C215.259 179.058 215.478 180.043 216.231 180.16L216.248 180.162C216.26 180.164 216.271 180.166 216.283 180.168C215.913 181.047 215.397 181.862 214.752 182.566C214.123 185.961 211.423 186.283 208.534 185.294H208.532C208.217 186.67 207.755 188.014 207.162 189.294H202.268C202.25 189.24 202.234 189.184 202.218 189.129C202.671 189.157 203.127 189.131 203.573 189.049C203.21 188.603 202.847 188.154 202.483 187.708C202.475 187.699 202.468 187.691 202.461 187.682C202.276 187.454 202.09 187.228 201.906 186.999L201.906 186.999C201.895 186.299 201.978 185.601 202.145 184.924L202.145 184.924V184.924Z" fill="#CCCCCC"/>
<path d="M80.6258 183.201C81.4082 183.25 81.8405 182.278 81.2486 181.712L81.1898 181.477C81.1975 181.459 81.2053 181.44 81.2132 181.421C82.0043 179.535 84.6857 179.548 85.4701 181.437C86.1664 183.114 87.0528 184.794 87.2711 186.567C87.369 187.35 87.3249 188.147 87.1513 188.915C88.7827 185.351 89.6412 181.46 89.6412 177.546C89.6412 176.563 89.5874 175.579 89.4773 174.599C89.3868 173.796 89.2621 172.999 89.1006 172.209C88.2275 167.938 86.3368 163.87 83.6096 160.473C82.2986 159.756 81.2053 158.636 80.5449 157.293C80.3076 156.809 80.1217 156.288 80.0337 155.757C80.1829 155.776 80.5963 153.504 80.4837 153.365C80.6917 153.049 81.0638 152.892 81.2909 152.584C82.4203 151.053 83.9762 151.32 84.7885 153.401C86.5238 154.277 86.5406 155.73 85.4758 157.127C84.7984 158.015 84.7054 159.218 84.111 160.169C84.1722 160.248 84.2358 160.323 84.2969 160.402C85.4182 161.84 86.388 163.386 87.2056 165.01C86.9746 163.205 87.3157 161.031 87.8973 159.629C88.5593 158.032 89.8001 156.687 90.8929 155.306C92.2054 153.647 94.8969 154.371 95.1281 156.474C95.1304 156.494 95.1325 156.514 95.1347 156.535C94.9724 156.626 94.8134 156.723 94.658 156.826C93.7721 157.412 94.0783 158.786 95.128 158.948L95.1518 158.951C95.0931 159.536 94.9928 160.116 94.8461 160.686C96.2479 166.107 93.2214 168.082 88.9001 168.17C88.8047 168.219 88.7117 168.268 88.6163 168.315C89.0542 169.547 89.4039 170.812 89.6632 172.094C89.8955 173.226 90.057 174.371 90.1475 175.521C90.26 176.971 90.2502 178.429 90.1279 179.877L90.1353 179.826C90.4459 178.231 91.3117 176.741 92.5689 175.709C94.4418 174.17 97.0878 173.604 99.1082 172.367C100.081 171.772 101.327 172.541 101.157 173.669C101.155 173.687 101.152 173.705 101.149 173.723C100.848 173.845 100.555 173.987 100.271 174.146C100.109 174.238 99.9497 174.335 99.7944 174.438C98.9085 175.024 99.2147 176.397 100.264 176.559L100.288 176.563C100.305 176.565 100.32 176.568 100.337 176.57C99.821 177.795 99.1019 178.933 98.2018 179.914C97.3253 184.647 93.5606 185.096 89.5336 183.717H89.5311C89.0908 185.635 88.4476 187.509 87.6209 189.294H80.7968C80.7723 189.218 80.7503 189.14 80.7283 189.064C81.3594 189.104 81.9953 189.067 82.6166 188.952C82.1103 188.331 81.604 187.704 81.0977 187.083C81.0854 187.071 81.0756 187.059 81.0659 187.046C80.809 186.728 80.5498 186.413 80.293 186.095L80.2928 186.095C80.2767 185.118 80.3938 184.145 80.6256 183.201L80.6258 183.201V183.201Z" fill="#CCCCCC"/>
<path d="M43.7895 184.924C44.3506 184.959 44.6607 184.262 44.2362 183.855L44.194 183.687C44.1995 183.674 44.2051 183.661 44.2107 183.647C44.7782 182.294 46.7015 182.303 47.2641 183.658C47.7635 184.861 48.3994 186.066 48.5559 187.338C48.6261 187.899 48.5945 188.471 48.47 189.022C49.6401 186.466 50.2559 183.675 50.2559 180.868C50.2559 180.162 50.2173 179.457 50.1384 178.753C50.0734 178.178 49.984 177.606 49.8682 177.039C49.2419 173.976 47.8857 171.058 45.9296 168.621C44.9893 168.107 44.2051 167.304 43.7314 166.341C43.5612 165.993 43.4279 165.62 43.3647 165.239C43.4718 165.253 43.7683 163.623 43.6875 163.523C43.8367 163.297 44.1036 163.184 44.2665 162.963C45.0766 161.865 46.1926 162.057 46.7752 163.549C48.0199 164.177 48.0319 165.219 47.2682 166.221C46.7824 166.859 46.7156 167.721 46.2893 168.404C46.3331 168.46 46.3788 168.514 46.4226 168.571C47.2269 169.602 47.9225 170.711 48.509 171.876C48.3432 170.581 48.5879 169.022 49.005 168.016C49.4799 166.871 50.3699 165.906 51.1537 164.915C52.0951 163.726 54.0257 164.245 54.1915 165.753C54.1931 165.768 54.1947 165.782 54.1962 165.797C54.0798 165.862 53.9658 165.932 53.8543 166.006C53.2189 166.426 53.4385 167.411 54.1914 167.528L54.2085 167.53C54.1664 167.949 54.0945 168.365 53.9892 168.774C54.9947 172.663 52.8239 174.079 49.7243 174.143C49.6559 174.178 49.5892 174.213 49.5208 174.246C49.8349 175.13 50.0857 176.038 50.2717 176.957C50.4384 177.769 50.5542 178.59 50.6191 179.415C50.6998 180.455 50.6927 181.501 50.605 182.54L50.6103 182.503C50.8331 181.359 51.4541 180.29 52.3559 179.55C53.6992 178.446 55.5971 178.04 57.0463 177.153C57.7439 176.726 58.6379 177.278 58.5161 178.087L58.5102 178.125C58.2944 178.213 58.0839 178.315 57.8804 178.429C57.764 178.495 57.6499 178.564 57.5385 178.638C56.9031 179.058 57.1227 180.043 57.8756 180.16L57.8927 180.162C57.905 180.164 57.9155 180.166 57.9277 180.168C57.5576 181.047 57.0418 181.862 56.3962 182.566C55.7675 185.961 53.0672 186.283 50.1787 185.294H50.177C49.8612 186.67 49.3998 188.014 48.8068 189.294H43.9121C43.8946 189.24 43.8788 189.184 43.863 189.129C44.3156 189.157 44.7718 189.131 45.2174 189.049C44.8542 188.603 44.4911 188.154 44.1279 187.708C44.1191 187.699 44.1121 187.691 44.1051 187.682C43.9209 187.454 43.7349 187.228 43.5507 186.999L43.5506 186.999C43.5391 186.299 43.623 185.601 43.7893 184.924L43.7895 184.924V184.924Z" fill="#CCCCCC"/>
<path d="M63.7547 104.07C63.7547 104.07 55.0894 103.663 56.9983 106.071C58.2405 107.638 64.0316 116.465 67.317 118.232C68.9531 119.112 70.9909 118.402 71.7286 116.697L77.8511 102.547L73.8342 101.09L68.9738 112.286L63.7547 104.07V104.07Z" fill="#CCCCCC"/>
<path d="M75.92 103.225C77.5701 103.225 78.9078 101.887 78.9078 100.237C78.9078 98.587 77.5701 97.2493 75.92 97.2493C74.2698 97.2493 72.9321 98.587 72.9321 100.237C72.9321 101.887 74.2698 103.225 75.92 103.225Z" fill="#CCCCCC"/>
<path d="M79.3623 116.714L67.7358 115.549L67.7831 115.391C70.1265 107.568 72.0403 100.744 71.7202 96.4654C71.7111 96.3436 71.7704 96.2282 71.875 96.1638C71.981 96.099 72.1128 96.0982 72.2191 96.1624L84.5115 103.603L83.5871 107.785L79.3623 116.714Z" fill="#CCCCCC"/>
<path d="M66.392 124.197L69.0697 132.931L56.8853 134.248L61.2312 123.111L66.392 124.197Z" fill="#CCCCCC"/>
<path d="M69.3746 117.439C69.0839 119.514 69.016 121.476 69.38 122.568C69.4768 122.858 70.926 124.98 71.0098 125.284C71.7579 127.996 68.5652 128.544 68.5652 128.544L56.3169 132.61C55.6116 132.844 55.0179 132.027 55.4686 131.436C56.4732 130.119 57.3908 128.215 57.3255 125.694C57.2236 121.765 55.485 115.517 54.524 112.34C54.1285 111.033 54.2239 109.628 54.7902 108.385L56.1575 105.384L58.1458 101.024L58.7868 97.8486L64.4908 98.1203L65.1943 100.704L70.5018 108.806C70.7164 109.135 70.8577 109.502 70.9201 109.879C71.0043 110.352 70.9636 110.846 70.7979 111.311C70.2465 112.857 69.6842 115.212 69.3746 117.439H69.3746Z" fill="#263238"/>
<path d="M53.5249 94.4253C55.8038 97.2666 51.7621 101.841 54.2393 104.511C53.7639 104.701 53.256 104.775 52.7453 104.75C52.7209 104.663 52.6937 104.576 52.6666 104.492C52.4465 103.808 52.1532 103.148 51.7865 102.528C51.8571 103.202 51.8028 103.892 51.6235 104.546C51.2405 104.43 50.8711 104.261 50.5289 104.055C50.4854 104.03 50.4474 104.006 50.404 103.976C49.2849 101.887 48.853 99.4289 49.2468 97.0928C48.4917 98.182 47.7638 99.3256 47.3618 100.583C46.001 98.4319 45.0557 95.9791 45.1155 93.4474C45.1752 90.6306 46.6909 87.7403 49.2659 86.594C50.3279 86.1214 51.5882 85.9095 52.3297 85.0131C52.729 84.535 52.9192 83.9211 53.2071 83.367C53.495 82.8129 53.9432 82.275 54.5625 82.1854C54.9319 82.1338 55.3257 82.3375 55.5295 82.6309C54.5272 83.7283 54.5842 85.5102 54.9102 87.0069C55.2578 88.615 56.309 90.6088 55.2361 91.8556C54.5761 92.6244 51.3438 91.7089 53.5249 94.4253L53.5249 94.4253Z" fill="#263238"/>
<path d="M66.7869 92.0002C66.6398 91.4852 67.6539 94.6331 67.1645 94.6899C64.9358 94.9456 61.8763 96.2768 60.324 96.8978C60.2541 96.8896 60.1842 96.8815 60.1163 96.8714C59.9498 96.8531 59.7874 96.8267 59.627 96.7963C56.0125 96.1124 54.6226 90.5598 54.6226 90.509C54.6226 90.2594 55.2216 83.4035 56.1653 83.302C56.41 83.2756 56.6588 83.2614 56.9117 83.2614H59.2535C59.7511 83.1559 60.2445 83.0828 60.7235 83.0483H60.7277C67.4778 82.2786 70.7372 85.2446 68.812 89.0595C68.8099 89.0636 68.8058 89.0676 68.8037 89.0717C68.703 89.2219 68.6146 89.3639 68.5365 89.4999C68.4604 89.6278 68.3966 89.7495 68.3411 89.8652C67.9114 90.7582 69.016 91.8818 68.2836 92.0915C67.3094 92.3704 70.8456 101.538 66.9898 101.538C68.8654 102.072 67.1928 93.4208 66.7869 92.0002H66.7869Z" fill="#263238"/>
<path d="M62.5782 97.3796C65.6404 97.3796 68.1228 94.8971 68.1228 91.8348C68.1228 88.7724 65.6404 86.2899 62.5782 86.2899C59.5161 86.2899 57.0337 88.7724 57.0337 91.8348C57.0337 94.8971 59.5161 97.3796 62.5782 97.3796Z" fill="#CCCCCC"/>
<path d="M68.8117 89.362C68.7194 89.4109 68.6297 89.4543 68.5374 89.5005C68.4396 89.5467 68.3418 89.5929 68.2467 89.6363C67.6274 89.9161 67.0462 90.1144 66.5138 90.2041C66.3644 89.7369 66.1634 89.2859 65.9135 88.8622C65.9624 89.3321 65.9217 89.8129 65.794 90.2692C65.0525 90.2557 64.4305 89.9759 63.9606 89.362C63.9361 88.7291 63.7949 88.0989 63.5395 87.5149C63.5884 88.1613 63.4092 88.8214 63.0506 89.362L63.1457 96.9651C61.2443 98.2282 65.3513 102.487 64.7754 103.484C64.6097 103.465 58.9627 96.3919 58.8025 96.3621C55.1872 95.6775 52.892 89.7233 53.1853 89.3864C53.1853 88.395 53.4162 87.4605 53.8291 86.6239C54.3642 85.5373 55.2035 84.6247 56.2438 83.9972C56.8549 83.7011 57.5014 83.4593 58.1723 83.2746C58.1886 83.2692 58.2022 83.2665 58.2185 83.261C58.4222 83.2067 58.6313 83.1551 58.8378 83.1144C59.2642 83.0247 59.6961 82.9568 60.1361 82.916C60.1687 82.9133 60.1986 82.9133 60.2285 82.9133C60.4077 82.9133 60.5761 82.9622 60.7228 83.0491H60.7283C60.8342 83.1144 60.9293 83.1958 61.0026 83.2963C61.1303 83.4593 61.2036 83.6603 61.2036 83.8831H63.2598C63.3358 83.8831 63.4119 83.8831 63.4879 83.8885C66.3535 84.0026 68.6542 86.2545 68.8036 89.0713C68.809 89.1691 68.8117 89.2642 68.8117 89.362H68.8117Z" fill="#263238"/>
<path d="M60.3417 83.9363C60.3417 85.9538 58.7063 87.5893 56.6889 87.5893C54.6715 87.5893 53.0361 85.9538 53.0361 83.9363C53.0361 81.9188 54.6715 80.2833 56.6889 80.2833C58.7063 80.2833 60.3417 81.9188 60.3417 83.9363Z" fill="#263238"/>
<path d="M230.736 165.441V154.8C232.17 154.211 233.181 152.803 233.181 151.157C233.181 149.51 232.17 148.102 230.736 147.513V143.007C230.736 142.482 230.311 142.057 229.786 142.057C229.261 142.057 228.835 142.482 228.835 143.007V147.218C190.6 148.582 152.68 149.878 132.681 147.218V143.007C132.681 142.482 132.255 142.057 131.73 142.057C131.205 142.057 130.78 142.482 130.78 143.007V147.218H35.1688V143.007C35.1688 142.482 34.7432 142.057 34.2182 142.057C33.6931 142.057 33.2675 142.482 33.2675 143.007V147.414C31.6912 147.928 30.5513 149.408 30.5513 151.157C30.5513 152.905 31.6912 154.385 33.2675 154.9V165.342C31.6912 165.856 30.5513 167.336 30.5513 169.085C30.5513 170.833 31.6912 172.313 33.2675 172.828V188.371C33.2675 188.896 33.6931 189.321 34.2182 189.321C34.7432 189.321 35.1688 188.896 35.1688 188.371V173.023H130.78V188.371C130.78 188.896 131.205 189.321 131.73 189.321C132.255 189.321 132.681 188.896 132.681 188.371V173.023H228.835V188.371C228.835 188.896 229.261 189.321 229.786 189.321C230.311 189.321 230.736 188.896 230.736 188.371V172.728C232.17 172.139 233.181 170.731 233.181 169.085C233.181 167.438 232.17 166.03 230.736 165.441V165.441ZM35.1688 155.095C72.3667 152.073 108.763 149.504 130.78 155.095C128.746 158.476 128.708 161.827 130.78 165.146C105.407 168.141 71.4509 167.18 35.1688 165.146C36.3099 162.164 36.0994 158.746 35.1688 155.095ZM132.681 165.146V155.095H228.835C224.809 158.356 224.197 161.693 228.835 165.146C210.227 171.503 168.806 167.072 132.681 165.146Z" fill="#636363"/>
<path d="M79.2262 120.887C79.0291 120.887 78.8294 120.867 78.6287 120.827L67.2543 118.515C66.53 118.368 65.9195 117.907 65.5795 117.251C65.2394 116.595 65.215 115.83 65.5125 115.154L69.9108 105.148C70.1519 104.599 70.7169 104.25 71.3148 104.287L81.5299 104.856C81.8066 104.868 81.9647 104.698 82.0268 104.531C82.0888 104.364 82.0782 104.126 81.8624 103.96L72.0347 96.4157C71.9675 96.3632 71.9529 96.2703 72.0009 96.1998C72.049 96.1292 72.1404 96.1088 72.2138 96.1523L84.81 103.506C85.7373 104.048 86.1678 105.144 85.8569 106.172L82.0406 118.789C81.6563 120.06 80.5037 120.887 79.2262 120.887V120.887ZM72.0762 96.3865L72.0772 96.3871L72.0762 96.3865Z" fill="#3F3D56"/>
<path d="M66.1339 108.917C66.1339 108.917 60.1891 102.599 59.8866 105.657C59.6897 107.648 57.7147 118.018 58.8474 121.573C59.4115 123.343 61.3702 124.249 63.0859 123.537L77.324 117.624L75.4502 113.784L64.1728 118.451L66.1339 108.917Z" fill="#CCCCCC"/>
<path d="M77.542 117.61C79.1922 117.61 80.5299 116.272 80.5299 114.622C80.5299 112.971 79.1922 111.634 77.542 111.634C75.8919 111.634 74.5542 112.971 74.5542 114.622C74.5542 116.272 75.8919 117.61 77.542 117.61Z" fill="#CCCCCC"/>
<path d="M22.5376 189.677C22.5376 189.856 22.6816 190 22.8608 190H235.619C235.799 190 235.943 189.856 235.943 189.677C235.943 189.497 235.799 189.354 235.619 189.354H22.8608C22.6816 189.354 22.5376 189.497 22.5376 189.677Z" fill="#CCCCCC"/>
<path d="M62.561 180.787L64.7464 182.405L72.0271 174.745L68.8017 172.357L62.561 180.787Z" fill="#CCCCCC"/>
<path d="M65.328 183.14L66.425 181.659L65.8245 181.268L63.3833 179.675L62.8174 179.308L58.7299 183.963L58.5107 184.213L60.0624 185.362L60.3079 185.135L61.4223 184.101L61.1151 185.732L61.047 186.091L65.1609 189.137C65.4066 189.319 65.7012 189.388 65.9832 189.351C66.2869 189.316 66.5742 189.16 66.7697 188.895C67.5438 188.213 65.4207 183.927 65.328 183.14V183.14Z" fill="#263238"/>
<path d="M89.2081 157.88L88.6567 158.513L87.0541 160.35L69.923 179.883L64.2189 176.08C68.5051 167.909 71.2621 162.887 75.8905 159.388C77.1725 158.418 78.6013 157.565 80.2446 156.794C80.2446 156.794 75.4966 155.061 69.9556 152.928C69.4694 152.741 68.975 152.551 68.4779 152.355C63.8957 150.576 59.0201 148.612 55.9535 147.17C54.0874 146.292 53.0879 144.888 52.6831 143.274C51.5179 138.676 55.1467 132.363 57.1567 131.638L69.1081 131.26L70.583 140.36L70.7378 141.311C70.7378 141.311 75.1164 143.427 79.7122 145.543C80.4021 145.858 81.0948 146.176 81.7793 146.485C82.8657 146.974 83.9251 147.447 84.9083 147.873C84.9308 147.883 84.9533 147.893 84.9758 147.903C87.8253 149.133 89.599 152.016 89.3926 155.114L89.2081 157.88V157.88Z" fill="#263238"/>
</g>
<defs>
<clipPath id="clip0_10460_952">
<rect width="235.943" height="190" fill="white"/>
</clipPath>
</defs>
</svg>
