<svg width="351" height="292" viewBox="0 0 351 292" fill="none" xmlns="http://www.w3.org/2000/svg">
<g clip-path="url(#clip0_10460_950)">
<path d="M94.2529 274.387L100.17 276.451L110.945 254.597L102.212 251.55L94.2529 274.387Z" fill="#A8A8A8"/>
<path d="M101.954 277.671L103.353 273.658L101.764 273.21L95.3007 271.376L93.8037 270.954L87.9977 284.006L87.6865 284.705L91.8881 286.171L92.2726 285.503L94.0167 282.463L94.4584 286.265L94.5541 287.102L105.693 290.988C106.358 291.216 107.085 291.171 107.717 290.865C108.348 290.559 108.834 290.016 109.068 289.354C110.304 287.321 102.696 279.339 101.954 277.671Z" fill="#263238"/>
<path d="M52.4044 279.013H58.6709L61.6523 254.828L52.4028 254.829L52.4044 279.013Z" fill="#A8A8A8"/>
<path d="M60.7563 279.578V275.327L59.1088 275.428L52.4024 275.825L50.8503 275.921L49.6637 290.157L49.6001 290.92H54.0499L54.1929 290.162L54.8391 286.717L56.5078 290.162L56.8733 290.92H68.6705C69.3726 290.915 70.0445 290.634 70.5404 290.137C71.0363 289.64 71.3162 288.967 71.3192 288.265C71.8172 285.938 62.0065 280.908 60.7563 279.578Z" fill="#263238"/>
<path d="M97.1278 127.253L106.97 140.305C106.97 140.305 101.535 139.927 106.97 142.291C112.405 144.655 112.56 143.82 112.482 146.685C112.405 149.55 106.865 149.122 109.635 152.055C112.405 154.988 130.963 193.985 130.963 193.985C130.963 193.985 115.757 250.445 113.809 252.749C111.862 255.052 109.688 252.877 111.862 255.052C114.036 257.227 116.754 254.508 114.036 257.227C111.318 259.947 107.591 264.745 107.591 264.745L96.6427 263.209C96.6427 263.209 84.6847 251.789 103.709 232.755C103.709 232.755 108.498 213.713 106.375 213.717C104.252 213.721 104.252 216.792 104.252 210.634V204.476L79.059 157.255C79.059 157.255 62.9814 144.707 63.2339 138.971C63.4864 133.235 97.1278 127.253 97.1278 127.253Z" fill="#263238"/>
<path d="M79.2492 140.305C79.2492 140.305 90.6636 197.95 89.033 199.582C87.4024 201.213 87.4024 205.307 87.4024 205.307L61.3122 263.209L50.9848 263.753C50.7409 247.187 50.6738 234.621 59.6816 222.966L64.03 137.586L79.2492 140.305Z" fill="#263238"/>
<path d="M94.0681 71.877L81.6281 62.0509L75.0979 61.671L65.4083 67.8816L63.0356 79.9923L57.4243 93.6298L65.6546 130.433C65.6546 130.433 66.4265 133.074 64.4037 133.391C62.3809 133.709 62.6234 137.601 62.6234 137.601C62.6234 137.601 63.0353 140.975 61.0711 141.272C59.1069 141.569 53.8693 141.569 58.4525 147.465C63.0356 153.361 99.2856 131.062 99.2856 131.062L104.551 103.422C104.551 103.422 114.761 89.7006 103.765 81.8421L94.0681 71.877Z" fill="#858585"/>
<path d="M39.7618 155.438C39.2137 154.753 38.8222 153.957 38.6149 153.105C38.4076 152.253 38.3896 151.365 38.5621 150.506C38.7346 149.646 39.0934 148.834 39.6133 148.128C40.1332 147.422 40.8015 146.839 41.5711 146.419L57.2187 93.8788L67.003 98.8073L49.9625 149.167C50.5815 150.507 50.6876 152.028 50.2607 153.441C49.8337 154.855 48.9035 156.062 47.6461 156.835C46.3888 157.608 44.8917 157.893 43.4386 157.635C41.9854 157.378 40.6772 156.596 39.7618 155.438L39.7618 155.438Z" fill="#A8A8A8"/>
<path d="M67.6552 67.3955C67.6552 67.3955 64.8582 65.9083 62.9451 72.344C61.4135 77.4962 48.9857 108.185 48.8272 115.646C47.8044 115.863 46.8828 116.414 46.2076 117.213C45.5324 118.012 45.1419 119.012 45.0977 120.057L60.4636 122.118C63.1486 119.852 63.8531 116.791 62.8142 115.883L66.1505 106.766L80.0692 77.76L69.696 68.4347L67.6552 67.3955Z" fill="#858585"/>
<path d="M149.76 138.168C149.959 137.313 149.968 136.426 149.786 135.568C149.605 134.71 149.237 133.902 148.71 133.202C148.183 132.501 147.509 131.924 146.735 131.513C145.961 131.101 145.106 130.864 144.231 130.819L108.336 89.8022L100.721 98.8926L137.852 136.927C137.873 138.403 138.435 139.82 139.431 140.91C140.427 142 141.788 142.686 143.255 142.839C144.723 142.992 146.196 142.601 147.395 141.74C148.594 140.879 149.435 139.608 149.76 138.168V138.168Z" fill="#A8A8A8"/>
<path d="M86.5558 70.8521C86.5558 70.8521 88.4349 68.301 92.9415 73.276C96.5493 77.2589 121.019 99.5528 124.387 106.212C125.403 105.965 126.472 106.063 127.426 106.491C128.38 106.919 129.165 107.652 129.656 108.575L116.692 117.081C113.292 116.2 111.334 113.745 111.878 112.477L104.929 105.7L79.8423 85.5684L85.1648 72.672L86.5558 70.8521Z" fill="#858585"/>
<path d="M91.5809 47.8251C94.406 40.5569 90.8071 32.3735 83.5426 29.5469C76.2782 26.7204 68.099 30.3211 65.2739 37.5894C62.4489 44.8576 66.0477 53.041 73.3122 55.8675C80.5767 58.694 88.7558 55.0933 91.5809 47.8251Z" fill="#A8A8A8"/>
<path d="M95.2889 29.7639C94.4395 28.8475 93.3144 28.2336 92.0844 28.0154C90.8545 27.7973 89.5869 27.9868 88.4745 28.5552C88.7585 26.9683 89.0425 25.3814 89.3265 23.7944C86.9664 23.433 84.6064 23.0716 82.2463 22.7101C78.6858 22.1648 75.017 21.6231 71.5155 22.4685C69.0088 23.1102 66.7248 24.4243 64.9095 26.269C63.0942 28.1138 61.8165 30.4192 61.2142 32.9369C59.6893 31.9024 57.905 31.3165 56.064 31.2455C54.223 31.1746 52.3989 31.6214 50.799 32.5354C49.199 33.4494 47.8872 34.7939 47.0125 36.4163C46.1378 38.0386 45.7352 39.8738 45.8505 41.7136C46.0201 44.4214 47.2857 46.92 48.0688 49.5176C51.0447 59.3885 46.1161 71.0398 36.9619 75.7743C39.9102 78.012 42.9551 80.2984 46.5254 81.2722C50.0957 82.246 54.3638 81.6059 56.7151 78.7468C57.918 77.2841 58.4986 75.4214 59.0523 73.61C61.291 66.286 63.5297 58.9621 65.7684 51.6381L69.3877 58.176C70.5435 59.7929 70.1298 62.0556 69.2972 63.8605C68.4646 65.6653 67.255 67.3363 66.8823 69.2888C66.5096 71.2414 67.3757 73.6609 69.3151 74.0924C71.9355 67.9249 74.612 61.3529 73.5955 54.729C73.1999 52.1511 72.2521 49.5071 72.9967 47.0076C73.572 45.0761 75.0949 43.5561 76.787 42.4625C78.5584 41.3195 80.5479 40.5574 82.6294 40.2246C87.2293 39.4926 92.9547 40.4756 95.6547 36.6784C96.3545 35.6432 96.6975 34.4078 96.6315 33.1597C96.5655 31.9117 96.0941 30.7194 95.2889 29.7639V29.7639Z" fill="#263238"/>
<path d="M247.834 283.055L240.451 283.055L236.938 254.562L247.835 254.563L247.834 283.055Z" fill="#A8A8A8"/>
<path d="M248.094 290.761L225.39 290.761V290.473C225.39 288.129 226.321 285.88 227.978 284.222C229.635 282.564 231.883 281.632 234.227 281.632H234.227L238.374 278.484L246.112 281.632L248.094 281.632L248.094 290.761Z" fill="#263238"/>
<path d="M280.04 283.055L272.658 283.055L269.146 254.562L280.042 254.563L280.04 283.055Z" fill="#A8A8A8"/>
<path d="M280.3 290.761L257.596 290.761V290.473C257.596 288.128 258.527 285.88 260.185 284.222C261.842 282.563 264.09 281.632 266.433 281.632H266.434L270.581 278.484L278.319 281.632L280.301 281.632L280.3 290.761Z" fill="#263238"/>
<path d="M229.451 127.806C229.451 127.806 222.347 149.635 223.658 152.508C224.97 155.381 227.207 153.143 224.97 155.381C222.733 157.619 220.78 155.24 222.875 159.041C224.97 162.842 228.143 194.132 229.539 195.646C230.935 197.161 232.854 197.202 231.149 198.674C229.444 200.145 227.207 197.161 229.444 200.145C231.681 203.13 237.617 271.974 237.617 271.974H249.213C249.213 271.974 252.102 268.643 250.467 266.476C248.832 264.308 250.61 263.472 250.467 262.025C250.323 260.578 250.867 257.457 250.968 256.033C251.069 254.609 253.029 220.686 248.32 201.09L256.906 163.777L267.306 208.874C267.306 208.874 262.522 246.702 267.306 258.862C267.306 258.862 263.449 262.076 265.159 263.938C266.87 265.8 268.361 264.308 266.87 265.8C265.379 267.292 269.107 272.515 269.107 272.515L281.784 271.769L288.959 201.09C288.959 201.09 290.168 193.719 288.959 192.456C287.749 191.192 287.749 195.669 287.749 191.193V185.224C287.749 185.224 287.049 148.513 286.955 146.352C286.862 144.19 277.914 128.522 277.914 128.522L229.451 127.806Z" fill="#263238"/>
<path d="M229.557 52.4122V95.4551C230.945 99.6229 231.662 103.985 231.679 108.379C231.633 115.696 230.025 124.128 230.03 127.815C230.009 128.304 230.062 128.793 230.188 129.266C237.308 149.914 274.985 131.15 278.41 129.393C278.573 129.312 278.659 129.266 278.659 129.266L277.916 106.138L278.043 99.488L278.924 53.8685L278.135 53.2371L271.223 47.7225L270.547 47.1827L268.47 50.2125L249.96 48.9395L242.896 46.9841L240.692 47.8803L230.758 51.9234L229.557 52.4122Z" fill="#858585"/>
<path d="M218.596 139.015L221.03 125.564L228.903 125.883L225.825 140.012C226.24 140.755 226.44 141.599 226.403 142.45C226.365 143.3 226.091 144.123 225.611 144.826C225.132 145.529 224.466 146.085 223.688 146.43C222.91 146.775 222.052 146.896 221.209 146.78C220.366 146.663 219.572 146.314 218.917 145.771C218.262 145.228 217.771 144.513 217.499 143.707C217.228 142.9 217.187 142.033 217.38 141.205C217.574 140.376 217.995 139.617 218.596 139.015V139.015Z" fill="#A8A8A8"/>
<path d="M230.765 52.3206C234.812 53.3691 237.122 58.6167 238.543 62.5494C240.373 67.602 237.405 98.752 233.795 103.296C230.996 106.82 231.66 106.142 232.585 109.061C233.509 111.98 235.644 109.133 233.722 113.474C231.8 117.816 230.164 117.033 231.444 118.884C232.724 120.735 234.218 120.521 232.581 123.297C230.944 126.073 231.086 127.069 230.73 128.137C230.374 129.204 229.945 136.892 229.945 136.892C229.945 136.892 221.622 135.537 217.282 137.173C217.282 137.173 220.272 129.629 219.063 128.276C217.854 126.924 216.288 126.638 217.569 124.93C218.85 123.222 221.412 123.365 218.708 122.226C216.005 121.086 218.286 105 218.286 105C215.251 94.4121 217.366 78.575 220.438 61.762C220.892 59.2756 222.148 57.0065 224.013 55.3015C225.878 53.5965 228.25 52.5495 230.765 52.3206V52.3206Z" fill="#858585"/>
<path d="M283.276 138.121L283.865 124.465L291.709 123.713L290.574 138.129C291.086 138.809 291.399 139.618 291.476 140.466C291.554 141.313 291.394 142.166 291.014 142.928C290.635 143.689 290.05 144.33 289.326 144.777C288.602 145.225 287.768 145.461 286.917 145.46C286.067 145.459 285.233 145.221 284.51 144.772C283.787 144.323 283.204 143.681 282.826 142.919C282.447 142.156 282.289 141.304 282.369 140.456C282.448 139.609 282.763 138.8 283.276 138.121V138.121Z" fill="#A8A8A8"/>
<path d="M275.077 52.5394L275.297 52.5653C277.342 52.8067 279.297 53.543 280.993 54.7106C282.689 55.8782 284.075 57.4418 285.031 59.266C287.529 64.0238 295.43 96.2481 293.495 100.67C291.691 104.794 291.766 103.78 293.077 106.547C294.388 109.313 296.118 106.203 294.802 110.765C293.486 115.327 291.759 114.773 293.278 116.433C294.797 118.094 296.248 117.68 295.003 120.652C293.757 123.624 294.033 124.592 293.825 125.698C293.617 126.804 294.233 134.479 294.233 134.479C294.233 134.479 285.803 134.266 281.725 136.475C281.725 136.475 283.665 128.595 282.284 127.419C280.902 126.243 279.313 126.172 280.351 124.306C281.389 122.44 283.946 122.235 281.113 121.472C278.28 120.71 278.36 104.463 278.36 104.463L275.077 52.5394Z" fill="#858585"/>
<path d="M254.866 35.1349C255.197 35.2113 255.527 35.2775 255.858 35.3284C256.869 35.4945 257.895 35.5474 258.917 35.4863C261.58 35.3432 264.151 34.465 266.345 32.9491C268.54 31.4331 270.272 29.3387 271.349 26.898C272.426 24.4573 272.807 21.7658 272.448 19.1219C272.09 16.4781 271.007 13.9852 269.319 11.9197C267.631 9.85429 265.404 8.29702 262.885 7.42062C260.366 6.54422 257.654 6.38293 255.049 6.95466C252.445 7.52638 250.049 8.80878 248.128 10.6596C246.208 12.5104 244.837 14.8574 244.168 17.4402C244.137 17.5573 244.107 17.6693 244.081 17.7864C243.213 21.5178 243.861 25.4414 245.884 28.6947C247.906 31.9479 251.137 34.2645 254.866 35.1349V35.1349Z" fill="#A8A8A8"/>
<path d="M268.191 33.4303C270.199 31.858 270.394 28.861 272.108 26.9718C274.973 23.8131 276.319 20.4148 274.818 16.672C273.491 13.3616 273.773 9.29234 270.914 7.1615C272.318 6.65293 272.648 5.59681 271.409 5.57731C270.574 5.56416 267.459 7.16179 268.958 5.17157C270.457 3.18135 267.62 3.96693 267.808 3.15227C267.995 2.33761 269.198 1.8864 269.729 2.53217C268.035 0.545969 264.335 0.969424 263.133 3.28711C261.444 0.754994 259.652 -0.98734 257.068 0.619544C254.53 2.19773 254.563 4.1486 251.834 3.67975C250.551 3.45936 250.429 5.8846 249.553 6.8476C248.676 7.81061 247.395 8.55592 246.116 8.31406C244.837 8.07219 243.859 6.47728 244.576 5.39001L241.561 12.2715L240.346 10.7803C238.415 12.0392 239.049 15.3241 240.992 16.5633C242.936 17.8024 246.645 14.9384 247.7 16.9884C249.362 20.2199 253.262 18.5881 255.94 16.3044C259.188 13.5348 263.109 21.9557 261.544 25.9277C263.168 24.3328 266.171 25.6564 267.012 27.7716C267.853 29.8867 267.236 32.2698 266.613 34.459L268.191 33.4303Z" fill="#263238"/>
<path d="M240.692 47.8803L241.196 48.5219L242.55 50.243L247.56 65.0506L271.223 47.7225L270.546 47.1827L266.943 39.5192L248.433 38.2462L242.896 46.9841L240.692 47.8803Z" fill="#263238"/>
<path d="M2.68059e-06 291.394C-0.00023452 291.474 0.0152727 291.553 0.0456267 291.626C0.0759807 291.7 0.120587 291.767 0.176876 291.823C0.233166 291.879 0.300025 291.924 0.373615 291.954C0.447205 291.985 0.526078 292 0.60568 292H350.394C350.555 292 350.709 291.936 350.823 291.822C350.936 291.709 351 291.555 351 291.394C351 291.233 350.936 291.079 350.823 290.966C350.709 290.852 350.555 290.788 350.394 290.788H0.605649C0.52605 290.788 0.447185 290.803 0.373599 290.834C0.300014 290.864 0.233154 290.909 0.176869 290.965C0.120583 291.021 0.0759798 291.088 0.0456267 291.162C0.0152736 291.236 -0.000231799 291.314 2.68059e-06 291.394V291.394Z" fill="#CCCCCC"/>
<path d="M346.236 283.174C346 283.185 345.766 283.123 345.566 282.996C345.366 282.869 345.209 282.684 345.118 282.465C345.026 282.247 345.005 282.005 345.055 281.774C345.105 281.542 345.226 281.332 345.399 281.171L345.479 280.856C345.468 280.831 345.458 280.806 345.447 280.781C345.209 280.218 344.809 279.737 344.299 279.401C343.789 279.064 343.191 278.885 342.579 278.888C341.968 278.89 341.371 279.073 340.864 279.413C340.356 279.754 339.96 280.237 339.726 280.802C338.79 283.057 337.599 285.316 337.305 287.7C337.176 288.754 337.231 289.822 337.467 290.857C335.269 286.06 334.128 280.847 334.12 275.57C334.12 274.246 334.193 272.923 334.34 271.607C334.462 270.529 334.631 269.457 334.847 268.394C336.025 262.624 338.554 257.216 342.226 252.614C344.004 251.644 345.441 250.151 346.345 248.339C346.673 247.687 346.904 246.991 347.032 246.273C346.832 246.299 346.276 243.244 346.427 243.057C346.148 242.632 345.648 242.421 345.343 242.007C343.825 239.949 341.734 240.308 340.642 243.106C338.31 244.284 338.287 246.237 339.718 248.115C340.629 249.31 340.754 250.927 341.553 252.206C341.47 252.311 341.385 252.413 341.303 252.519C339.8 254.451 338.491 256.527 337.394 258.715C337.66 256.263 337.342 253.784 336.464 251.479C335.574 249.332 333.907 247.523 332.438 245.667C332.05 245.168 331.522 244.796 330.922 244.597C330.322 244.398 329.677 244.382 329.068 244.55C328.459 244.718 327.913 245.063 327.5 245.541C327.086 246.019 326.824 246.609 326.746 247.237C326.743 247.264 326.74 247.292 326.737 247.319C326.955 247.442 327.169 247.573 327.378 247.711C327.64 247.886 327.844 248.137 327.961 248.43C328.079 248.723 328.105 249.045 328.037 249.353C327.969 249.662 327.809 249.942 327.579 250.158C327.348 250.374 327.058 250.515 326.746 250.563L326.714 250.568C326.792 251.355 326.929 252.134 327.125 252.9C325.241 260.19 329.309 262.845 335.116 262.964C335.244 263.03 335.369 263.096 335.498 263.158C334.395 266.285 333.703 269.542 333.44 272.847C333.291 274.797 333.3 276.756 333.466 278.705L333.456 278.636C333.035 276.469 331.88 274.514 330.186 273.1C327.668 271.032 324.112 270.27 321.397 268.607C321.108 268.422 320.773 268.323 320.43 268.322C320.087 268.321 319.751 268.418 319.461 268.602C319.172 268.786 318.941 269.049 318.796 269.36C318.651 269.671 318.598 270.017 318.643 270.357L318.654 270.43C319.059 270.595 319.453 270.785 319.834 270.999C320.052 271.122 320.266 271.253 320.475 271.391C320.737 271.566 320.941 271.817 321.058 272.11C321.176 272.403 321.202 272.725 321.134 273.033C321.066 273.342 320.906 273.622 320.676 273.838C320.445 274.054 320.155 274.195 319.843 274.243L319.811 274.248C319.788 274.252 319.768 274.255 319.745 274.258C320.437 275.91 321.408 277.431 322.615 278.754C323.793 285.118 328.853 285.721 334.265 283.868H334.268C334.862 286.45 335.722 288.963 336.835 291.367H346.007C346.04 291.265 346.069 291.16 346.099 291.058C345.25 291.111 344.398 291.06 343.561 290.906C344.241 290.071 344.922 289.229 345.602 288.394C345.618 288.378 345.632 288.362 345.645 288.344C345.99 287.917 346.339 287.493 346.684 287.065L346.684 287.064C346.702 285.754 346.552 284.446 346.237 283.174L346.236 283.174Z" fill="#858585"/>
</g>
<defs>
<clipPath id="clip0_10460_950">
<rect width="351" height="292" fill="white"/>
</clipPath>
</defs>
</svg>
