<svg width="250" height="190" viewBox="0 0 250 190" fill="none" xmlns="http://www.w3.org/2000/svg">
<path d="M108.547 61.6458C117.232 61.6458 124.272 54.5359 124.272 45.7653C124.272 36.9948 117.232 29.8849 108.547 29.8849C99.8625 29.8849 92.8223 36.9948 92.8223 45.7653C92.8223 54.5359 99.8625 61.6458 108.547 61.6458Z" fill="#263238"/>
<path d="M0 115.299C0 115.526 0.181103 115.709 0.406625 115.709H249.593C249.819 115.709 250 115.526 250 115.299C250 115.071 249.819 114.888 249.593 114.888H0.406625C0.181103 114.888 0 115.071 0 115.299Z" fill="#858585"/>
<path d="M159.561 28.1595L160.869 45.0509L179.817 37.0579L169.128 19.8779L159.561 28.1595Z" fill="#A8A8A8"/>
<path d="M158.993 33.3056C166.794 33.3056 173.118 26.9192 173.118 19.0411C173.118 11.163 166.794 4.77649 158.993 4.77649C151.193 4.77649 144.869 11.163 144.869 19.0411C144.869 26.9192 151.193 33.3056 158.993 33.3056Z" fill="#A8A8A8"/>
<path d="M132.568 152.039L134.96 173.704L118.217 171.362L123.684 151.348L132.568 152.039Z" fill="#A8A8A8"/>
<path d="M197.83 155.144L200.222 176.81L183.479 174.468L188.946 154.454L197.83 155.144Z" fill="#A8A8A8"/>
<path d="M158.024 89.7539C157.795 89.7539 139.523 90.6805 127.451 91.2939C121.737 91.5842 117.388 96.5787 117.831 102.339L122.147 158.422L134.448 158.767L134.748 113.564L159.049 114.944L158.024 89.7539Z" fill="#263238"/>
<path d="M211.668 89.4089C211.668 89.4089 214.743 113.219 212.351 115.634C209.96 118.049 134.96 113.736 134.96 113.736C134.96 113.736 151.413 89.7412 154.377 89.0575C157.34 88.3737 204.493 85.9583 204.493 85.9583L211.668 89.4089V89.4089Z" fill="#263238"/>
<path d="M114.508 59.432C111.651 55.3979 111.397 50.6397 113.94 48.8044C116.482 46.9691 120.858 48.7519 123.714 52.7878C124.877 54.3842 125.645 56.2386 125.953 58.196L137.841 75.4429L131.075 80.1731L118.852 63.322C117.117 62.3943 115.627 61.0604 114.508 59.432V59.432Z" fill="#A8A8A8"/>
<path d="M159.113 114.223C154.758 116.513 150.057 116.1 148.614 113.301C147.171 110.501 149.533 106.376 153.89 104.085C155.618 103.146 157.544 102.639 159.506 102.605L178.082 93.1361L181.771 100.564L163.536 110.424C162.383 112.029 160.867 113.332 159.113 114.223V114.223Z" fill="#A8A8A8"/>
<path d="M158.878 38.8566L176.304 31.6102L209.105 82.6801C209.105 82.6801 186.213 87.8561 178.354 88.8913C170.495 89.9265 161.611 85.7857 161.611 85.7857L158.878 38.8566V38.8566Z" fill="white"/>
<path d="M180.062 47.4833L173.741 27.5699L181.942 33.8532C181.942 33.8532 205.176 49.3812 205.176 55.9374C205.176 62.4937 212.352 82.5076 212.352 82.5076C212.352 82.5076 220.381 89.2364 217.648 95.4476C214.914 101.659 221.235 100.796 221.919 105.282C222.602 109.768 212.181 115.807 212.181 115.807C212.181 115.807 209.618 90.4441 201.418 90.4441C193.217 90.4441 180.062 47.4833 180.062 47.4833Z" fill="#858585"/>
<path d="M160.102 38.3474L151.532 41.7897C151.532 41.7897 152.899 65.9444 154.265 68.0148C155.632 70.0852 160.416 81.1273 160.416 81.1273V84.726C160.416 84.726 150.848 87.6836 151.19 89.4089C151.532 91.1342 173.741 95.9652 173.741 95.9652C173.741 95.9652 169.299 82.1625 166.566 77.6766C163.832 73.1908 160.102 38.3474 160.102 38.3474V38.3474Z" fill="#858585"/>
<path d="M180.233 33.508C180.233 33.508 199.368 32.4728 203.468 42.8248C207.568 53.1768 210.985 86.9934 210.985 86.9934L169.299 109.897L162.124 98.7256L190.142 76.6414L180.233 33.508V33.508Z" fill="#858585"/>
<path d="M154.607 41.7897C154.607 41.7897 144.698 40.4094 142.989 52.1417C141.281 63.874 142.367 65.4268 142.367 65.4268L139.573 72.1556L130.347 61.8036L121.463 67.6697C121.463 67.6697 137.523 93.8948 144.015 93.2047C150.507 92.5145 160.074 73.5359 160.074 73.5359L154.607 41.7897V41.7897Z" fill="#858585"/>
<path d="M204.096 93.218L199.026 165.669L185.871 165.151C185.871 165.151 182.967 96.6553 182.967 95.6201C182.967 94.5849 184.334 88.7187 192.876 88.3737C201.418 88.0286 204.096 93.218 204.096 93.218Z" fill="#263238"/>
<path d="M185.017 167.049C185.017 167.049 191.85 164.979 192.875 166.359C193.9 167.739 199.709 168.429 199.709 168.429L201.417 185.338C201.417 185.338 196.634 188.788 195.95 189.478C195.267 190.168 177.158 190.859 176.816 186.718C176.474 182.577 181.6 177.401 181.6 177.401L185.017 167.049V167.049Z" fill="#263238"/>
<path d="M134.789 162.218C134.789 162.218 136.839 160.493 137.523 165.324C138.206 170.154 140.598 178.091 137.181 179.126C133.764 180.161 99.5957 180.506 99.5957 177.401V174.295L102.671 171.88L108.823 170.89C108.823 170.89 120.78 159.802 122.147 159.802C123.514 159.802 127.955 164.288 127.955 164.288L134.789 162.218V162.218Z" fill="#263238"/>
<path d="M172.887 26.7793C172.887 26.7793 166.053 18.4977 163.32 19.1878C160.586 19.8779 162.295 20.9131 162.295 20.9131L155.461 13.3216C155.461 13.3216 149.994 11.2512 144.869 17.8075C144.869 17.8075 141.794 12.2864 144.869 9.18085C147.944 6.07524 148.969 6.42031 149.652 4.69498C150.336 2.96964 155.119 1.58937 155.119 1.58937C155.119 1.58937 154.845 -0.894021 156.349 0.347674C157.853 1.58937 161.609 1.58937 161.609 1.58937C161.609 1.58937 161.63 0.209106 163.158 1.58937C164.686 2.96964 166.395 2.27951 166.395 2.27951C166.395 2.27951 166.395 4.66781 167.591 4.68139C168.787 4.69498 170.837 2.96964 171.178 4.34991C171.52 5.73018 173.912 6.42031 174.254 10.5611C174.595 14.7019 172.887 26.7793 172.887 26.7793V26.7793Z" fill="#263238"/>
<path d="M97.4084 36.9961H41.7759C38.467 36.9961 35.7847 39.705 35.7847 43.0466V43.0466C35.7847 46.3882 38.467 49.0971 41.7759 49.0971H97.4084C100.717 49.0971 103.4 46.3882 103.4 43.0466C103.4 39.705 100.717 36.9961 97.4084 36.9961Z" fill="#858585"/>
<path d="M97.4797 10.5612H42.8457V71.0662H97.4797V10.5612Z" fill="white"/>
<path d="M97.8218 71.4112H42.5044V10.2161H97.8218V71.4112ZM43.1878 70.7211H97.1385V10.9062H43.1878V70.7211V70.7211Z" fill="#858585"/>
<path d="M100.975 45.7837H39.351C34.9393 45.7837 31.3628 49.3956 31.3628 53.851V53.851C31.3628 58.3065 34.9393 61.9184 39.351 61.9184H100.975C105.387 61.9184 108.963 58.3065 108.963 53.851C108.963 49.3956 105.387 45.7837 100.975 45.7837Z" fill="#858585"/>
<path d="M113.528 59.1813C114.315 59.1813 114.954 57.0206 114.954 54.3553C114.954 51.69 114.315 49.5293 113.528 49.5293C112.74 49.5293 112.101 51.69 112.101 54.3553C112.101 57.0206 112.74 59.1813 113.528 59.1813Z" fill="#858585"/>
<path d="M25.0863 58.6051C26.0317 58.6051 26.798 56.5089 26.798 53.9232C26.798 51.3374 26.0317 49.2412 25.0863 49.2412C24.1409 49.2412 23.3745 51.3374 23.3745 53.9232C23.3745 56.5089 24.1409 58.6051 25.0863 58.6051Z" fill="#858585"/>
<path d="M35.3568 53.2749H25.5142V54.2833H35.3568V53.2749Z" fill="#858585"/>
<path d="M112.672 53.707H104.684V55.1476H112.672V53.707Z" fill="#858585"/>
<path d="M103.303 116.618H44.2272C39.5567 116.618 35.7568 112.78 35.7568 108.063V65.3301C35.7568 60.6134 39.5567 56.7759 44.2272 56.7759H103.303C107.973 56.7759 111.773 60.6134 111.773 65.3301V108.063C111.773 112.78 107.973 116.618 103.303 116.618Z" fill="#858585"/>
<path d="M42.204 91.0185C43.2282 91.0185 44.0584 90.18 44.0584 89.1457C44.0584 88.1114 43.2282 87.2729 42.204 87.2729C41.1799 87.2729 40.3496 88.1114 40.3496 89.1457C40.3496 90.18 41.1799 91.0185 42.204 91.0185Z" fill="#263238"/>
<path d="M44.7714 97.069C45.7956 97.069 46.6258 96.2306 46.6258 95.1963C46.6258 94.162 45.7956 93.3235 44.7714 93.3235C43.7472 93.3235 42.917 94.162 42.917 95.1963C42.917 96.2306 43.7472 97.069 44.7714 97.069Z" fill="#263238"/>
<path d="M46.6259 102.543C47.6501 102.543 48.4803 101.705 48.4803 100.671C48.4803 99.6362 47.6501 98.7977 46.6259 98.7977C45.6017 98.7977 44.7715 99.6362 44.7715 100.671C44.7715 101.705 45.6017 102.543 46.6259 102.543Z" fill="#263238"/>
<path d="M49.9072 108.162C50.9313 108.162 51.7616 107.323 51.7616 106.289C51.7616 105.254 50.9313 104.416 49.9072 104.416C48.883 104.416 48.0527 105.254 48.0527 106.289C48.0527 107.323 48.883 108.162 49.9072 108.162Z" fill="#263238"/>
<path d="M55.3276 108.162C56.3517 108.162 57.182 107.323 57.182 106.289C57.182 105.254 56.3517 104.416 55.3276 104.416C54.3034 104.416 53.4731 105.254 53.4731 106.289C53.4731 107.323 54.3034 108.162 55.3276 108.162Z" fill="#263238"/>
<path d="M60.748 108.162C61.7721 108.162 62.6024 107.323 62.6024 106.289C62.6024 105.254 61.7721 104.416 60.748 104.416C59.7238 104.416 58.8936 105.254 58.8936 106.289C58.8936 107.323 59.7238 108.162 60.748 108.162Z" fill="#263238"/>
<path d="M66.1689 108.162C67.193 108.162 68.0233 107.323 68.0233 106.289C68.0233 105.254 67.193 104.416 66.1689 104.416C65.1447 104.416 64.3145 105.254 64.3145 106.289C64.3145 107.323 65.1447 108.162 66.1689 108.162Z" fill="#263238"/>
<path d="M71.5893 108.162C72.6134 108.162 73.4437 107.323 73.4437 106.289C73.4437 105.254 72.6134 104.416 71.5893 104.416C70.5651 104.416 69.7349 105.254 69.7349 106.289C69.7349 107.323 70.5651 108.162 71.5893 108.162Z" fill="#263238"/>
<path d="M77.0102 108.162C78.0343 108.162 78.8646 107.323 78.8646 106.289C78.8646 105.254 78.0343 104.416 77.0102 104.416C75.986 104.416 75.1558 105.254 75.1558 106.289C75.1558 107.323 75.986 108.162 77.0102 108.162Z" fill="#263238"/>
<path d="M82.4306 108.162C83.4548 108.162 84.285 107.323 84.285 106.289C84.285 105.254 83.4548 104.416 82.4306 104.416C81.4064 104.416 80.5762 105.254 80.5762 106.289C80.5762 107.323 81.4064 108.162 82.4306 108.162Z" fill="#263238"/>
<path d="M87.851 108.162C88.8752 108.162 89.7054 107.323 89.7054 106.289C89.7054 105.254 88.8752 104.416 87.851 104.416C86.8268 104.416 85.9966 105.254 85.9966 106.289C85.9966 107.323 86.8268 108.162 87.851 108.162Z" fill="#263238"/>
<path d="M93.2719 108.162C94.2961 108.162 95.1263 107.323 95.1263 106.289C95.1263 105.254 94.2961 104.416 93.2719 104.416C92.2477 104.416 91.4175 105.254 91.4175 106.289C91.4175 107.323 92.2477 108.162 93.2719 108.162Z" fill="#263238"/>
<path d="M98.6923 108.162C99.7165 108.162 100.547 107.323 100.547 106.289C100.547 105.254 99.7165 104.416 98.6923 104.416C97.6681 104.416 96.8379 105.254 96.8379 106.289C96.8379 107.323 97.6681 108.162 98.6923 108.162Z" fill="#263238"/>
<path d="M52.1464 102.543C53.1706 102.543 54.0008 101.705 54.0008 100.671C54.0008 99.6362 53.1706 98.7977 52.1464 98.7977C51.1222 98.7977 50.292 99.6362 50.292 100.671C50.292 101.705 51.1222 102.543 52.1464 102.543Z" fill="#263238"/>
<path d="M57.6669 102.543C58.6911 102.543 59.5213 101.705 59.5213 100.671C59.5213 99.6362 58.6911 98.7977 57.6669 98.7977C56.6428 98.7977 55.8125 99.6362 55.8125 100.671C55.8125 101.705 56.6428 102.543 57.6669 102.543Z" fill="#263238"/>
<path d="M63.1874 102.543C64.2116 102.543 65.0418 101.705 65.0418 100.671C65.0418 99.6362 64.2116 98.7977 63.1874 98.7977C62.1633 98.7977 61.333 99.6362 61.333 100.671C61.333 101.705 62.1633 102.543 63.1874 102.543Z" fill="#263238"/>
<path d="M68.7079 102.543C69.7321 102.543 70.5624 101.705 70.5624 100.671C70.5624 99.6362 69.7321 98.7977 68.7079 98.7977C67.6838 98.7977 66.8535 99.6362 66.8535 100.671C66.8535 101.705 67.6838 102.543 68.7079 102.543Z" fill="#263238"/>
<path d="M74.2284 102.543C75.2526 102.543 76.0829 101.705 76.0829 100.671C76.0829 99.6362 75.2526 98.7977 74.2284 98.7977C73.2043 98.7977 72.374 99.6362 72.374 100.671C72.374 101.705 73.2043 102.543 74.2284 102.543Z" fill="#263238"/>
<path d="M79.749 102.543C80.7731 102.543 81.6034 101.705 81.6034 100.671C81.6034 99.6362 80.7731 98.7977 79.749 98.7977C78.7248 98.7977 77.8945 99.6362 77.8945 100.671C77.8945 101.705 78.7248 102.543 79.749 102.543Z" fill="#263238"/>
<path d="M85.2695 102.543C86.2936 102.543 87.1239 101.705 87.1239 100.671C87.1239 99.6362 86.2936 98.7977 85.2695 98.7977C84.2453 98.7977 83.415 99.6362 83.415 100.671C83.415 101.705 84.2453 102.543 85.2695 102.543Z" fill="#263238"/>
<path d="M90.7895 102.543C91.8136 102.543 92.6439 101.705 92.6439 100.671C92.6439 99.6362 91.8136 98.7977 90.7895 98.7977C89.7653 98.7977 88.9351 99.6362 88.9351 100.671C88.9351 101.705 89.7653 102.543 90.7895 102.543Z" fill="#263238"/>
<path d="M96.31 102.543C97.3342 102.543 98.1644 101.705 98.1644 100.671C98.1644 99.6362 97.3342 98.7977 96.31 98.7977C95.2858 98.7977 94.4556 99.6362 94.4556 100.671C94.4556 101.705 95.2858 102.543 96.31 102.543Z" fill="#263238"/>
<path d="M101.83 102.543C102.855 102.543 103.685 101.705 103.685 100.671C103.685 99.6362 102.855 98.7977 101.83 98.7977C100.806 98.7977 99.9761 99.6362 99.9761 100.671C99.9761 101.705 100.806 102.543 101.83 102.543Z" fill="#263238"/>
<path d="M50.3349 97.069C51.3591 97.069 52.1893 96.2306 52.1893 95.1963C52.1893 94.162 51.3591 93.3235 50.3349 93.3235C49.3107 93.3235 48.4805 94.162 48.4805 95.1963C48.4805 96.2306 49.3107 97.069 50.3349 97.069Z" fill="#263238"/>
<path d="M55.8984 97.069C56.9225 97.069 57.7528 96.2306 57.7528 95.1963C57.7528 94.162 56.9225 93.3235 55.8984 93.3235C54.8742 93.3235 54.0439 94.162 54.0439 95.1963C54.0439 96.2306 54.8742 97.069 55.8984 97.069Z" fill="#263238"/>
<path d="M61.4613 97.069C62.4855 97.069 63.3158 96.2306 63.3158 95.1963C63.3158 94.162 62.4855 93.3235 61.4613 93.3235C60.4372 93.3235 59.6069 94.162 59.6069 95.1963C59.6069 96.2306 60.4372 97.069 61.4613 97.069Z" fill="#263238"/>
<path d="M67.0248 97.069C68.049 97.069 68.8792 96.2306 68.8792 95.1963C68.8792 94.162 68.049 93.3235 67.0248 93.3235C66.0007 93.3235 65.1704 94.162 65.1704 95.1963C65.1704 96.2306 66.0007 97.069 67.0248 97.069Z" fill="#263238"/>
<path d="M72.5878 97.069C73.612 97.069 74.4422 96.2306 74.4422 95.1963C74.4422 94.162 73.612 93.3235 72.5878 93.3235C71.5637 93.3235 70.7334 94.162 70.7334 95.1963C70.7334 96.2306 71.5637 97.069 72.5878 97.069Z" fill="#263238"/>
<path d="M78.1513 97.069C79.1755 97.069 80.0057 96.2306 80.0057 95.1963C80.0057 94.162 79.1755 93.3235 78.1513 93.3235C77.1271 93.3235 76.2969 94.162 76.2969 95.1963C76.2969 96.2306 77.1271 97.069 78.1513 97.069Z" fill="#263238"/>
<path d="M83.7143 97.069C84.7384 97.069 85.5687 96.2306 85.5687 95.1963C85.5687 94.162 84.7384 93.3235 83.7143 93.3235C82.6901 93.3235 81.8599 94.162 81.8599 95.1963C81.8599 96.2306 82.6901 97.069 83.7143 97.069Z" fill="#263238"/>
<path d="M89.2778 97.069C90.3019 97.069 91.1322 96.2306 91.1322 95.1963C91.1322 94.162 90.3019 93.3235 89.2778 93.3235C88.2536 93.3235 87.4233 94.162 87.4233 95.1963C87.4233 96.2306 88.2536 97.069 89.2778 97.069Z" fill="#263238"/>
<path d="M94.8408 97.069C95.8649 97.069 96.6952 96.2306 96.6952 95.1963C96.6952 94.162 95.8649 93.3235 94.8408 93.3235C93.8166 93.3235 92.9863 94.162 92.9863 95.1963C92.9863 96.2306 93.8166 97.069 94.8408 97.069Z" fill="#263238"/>
<path d="M100.404 97.069C101.428 97.069 102.259 96.2306 102.259 95.1963C102.259 94.162 101.428 93.3235 100.404 93.3235C99.3801 93.3235 98.5498 94.162 98.5498 95.1963C98.5498 96.2306 99.3801 97.069 100.404 97.069Z" fill="#263238"/>
<path d="M105.967 97.069C106.991 97.069 107.822 96.2306 107.822 95.1963C107.822 94.162 106.991 93.3235 105.967 93.3235C104.943 93.3235 104.113 94.162 104.113 95.1963C104.113 96.2306 104.943 97.069 105.967 97.069Z" fill="#263238"/>
<path d="M47.767 91.0185C48.7912 91.0185 49.6214 90.18 49.6214 89.1457C49.6214 88.1114 48.7912 87.2729 47.767 87.2729C46.7428 87.2729 45.9126 88.1114 45.9126 89.1457C45.9126 90.18 46.7428 91.0185 47.767 91.0185Z" fill="#263238"/>
<path d="M53.3305 91.0185C54.3547 91.0185 55.1849 90.18 55.1849 89.1457C55.1849 88.1114 54.3547 87.2729 53.3305 87.2729C52.3063 87.2729 51.4761 88.1114 51.4761 89.1457C51.4761 90.18 52.3063 91.0185 53.3305 91.0185Z" fill="#263238"/>
<path d="M58.894 91.0185C59.9181 91.0185 60.7484 90.18 60.7484 89.1457C60.7484 88.1114 59.9181 87.2729 58.894 87.2729C57.8698 87.2729 57.0396 88.1114 57.0396 89.1457C57.0396 90.18 57.8698 91.0185 58.894 91.0185Z" fill="#263238"/>
<path d="M64.457 91.0185C65.4811 91.0185 66.3114 90.18 66.3114 89.1457C66.3114 88.1114 65.4811 87.2729 64.457 87.2729C63.4328 87.2729 62.6025 88.1114 62.6025 89.1457C62.6025 90.18 63.4328 91.0185 64.457 91.0185Z" fill="#263238"/>
<path d="M70.0204 91.0185C71.0446 91.0185 71.8749 90.18 71.8749 89.1457C71.8749 88.1114 71.0446 87.2729 70.0204 87.2729C68.9963 87.2729 68.166 88.1114 68.166 89.1457C68.166 90.18 68.9963 91.0185 70.0204 91.0185Z" fill="#263238"/>
<path d="M75.5834 91.0185C76.6076 91.0185 77.4378 90.18 77.4378 89.1457C77.4378 88.1114 76.6076 87.2729 75.5834 87.2729C74.5593 87.2729 73.729 88.1114 73.729 89.1457C73.729 90.18 74.5593 91.0185 75.5834 91.0185Z" fill="#263238"/>
<path d="M81.1469 91.0185C82.1711 91.0185 83.0013 90.18 83.0013 89.1457C83.0013 88.1114 82.1711 87.2729 81.1469 87.2729C80.1227 87.2729 79.2925 88.1114 79.2925 89.1457C79.2925 90.18 80.1227 91.0185 81.1469 91.0185Z" fill="#263238"/>
<path d="M86.7099 91.0185C87.7341 91.0185 88.5643 90.18 88.5643 89.1457C88.5643 88.1114 87.7341 87.2729 86.7099 87.2729C85.6857 87.2729 84.8555 88.1114 84.8555 89.1457C84.8555 90.18 85.6857 91.0185 86.7099 91.0185Z" fill="#263238"/>
<path d="M92.2734 91.0185C93.2975 91.0185 94.1278 90.18 94.1278 89.1457C94.1278 88.1114 93.2975 87.2729 92.2734 87.2729C91.2492 87.2729 90.4189 88.1114 90.4189 89.1457C90.4189 90.18 91.2492 91.0185 92.2734 91.0185Z" fill="#263238"/>
<path d="M97.8364 91.0185C98.8605 91.0185 99.6908 90.18 99.6908 89.1457C99.6908 88.1114 98.8605 87.2729 97.8364 87.2729C96.8122 87.2729 95.9819 88.1114 95.9819 89.1457C95.9819 90.18 96.8122 91.0185 97.8364 91.0185Z" fill="#263238"/>
<path d="M103.4 91.0185C104.424 91.0185 105.254 90.18 105.254 89.1457C105.254 88.1114 104.424 87.2729 103.4 87.2729C102.376 87.2729 101.545 88.1114 101.545 89.1457C101.545 90.18 102.376 91.0185 103.4 91.0185Z" fill="#263238"/>
<path d="M43.7731 72.1467C47.7909 72.1467 51.0481 68.8573 51.0481 64.7997C51.0481 60.742 47.7909 57.4526 43.7731 57.4526C39.7552 57.4526 36.498 60.742 36.498 64.7997C36.498 68.8573 39.7552 72.1467 43.7731 72.1467Z" fill="#263238"/>
<path d="M102.829 72.1467C106.847 72.1467 110.104 68.8573 110.104 64.7997C110.104 60.742 106.847 57.4526 102.829 57.4526C98.8113 57.4526 95.5542 60.742 95.5542 64.7997C95.5542 68.8573 98.8113 72.1467 102.829 72.1467Z" fill="#263238"/>
<path d="M61.6817 61.9185H84.1305C85.1366 61.9185 86.0534 62.5019 86.4877 63.4185L92.5461 76.2066C93.3759 77.9582 92.1116 79.9845 90.1889 79.9845H57.3398C55.5468 79.9845 54.2864 78.2025 54.868 76.4896L59.2098 63.7015C59.572 62.6349 60.5651 61.9185 61.6817 61.9185V61.9185Z" fill="#263238"/>
<path d="M86.0989 19.5328H53.1548V20.223H86.0989V19.5328Z" fill="#858585"/>
<path d="M86.0989 25.744H53.1548V26.4342H86.0989V25.744Z" fill="#858585"/>
<path d="M86.0989 31.9552H53.1548V32.6453H86.0989V31.9552Z" fill="#858585"/>
</svg>
